<?xml version="1.0" encoding="UTF-8" standalone="no"?>
<svg
   width="512"
   height="512"
   viewBox="0 0 135.46666 135.46667"
   version="1.1"
   id="svg8"
   inkscape:version="1.3 (0e150ed6c4, 2023-07-21)"
   xml:space="preserve"
   inkscape:export-filename="collapsed-node.svg"
   inkscape:export-xdpi="96"
   inkscape:export-ydpi="96"
   sodipodi:docname="collapsed-node.svg"
   xmlns:inkscape="http://www.inkscape.org/namespaces/inkscape"
   xmlns:sodipodi="http://sodipodi.sourceforge.net/DTD/sodipodi-0.dtd"
   xmlns="http://www.w3.org/2000/svg"
   xmlns:svg="http://www.w3.org/2000/svg"
   xmlns:rdf="http://www.w3.org/1999/02/22-rdf-syntax-ns#"
   xmlns:cc="http://creativecommons.org/ns#"
   xmlns:dc="http://purl.org/dc/elements/1.1/"><defs
     id="defs2" /><sodipodi:namedview
     id="base"
     pagecolor="#ffffff"
     bordercolor="#666666"
     borderopacity="1.0"
     inkscape:pageopacity="0.0"
     inkscape:pageshadow="2"
     inkscape:zoom="2.8"
     inkscape:cx="199.28572"
     inkscape:cy="223.39286"
     inkscape:document-units="px"
     inkscape:current-layer="layer1"
     inkscape:document-rotation="0"
     showgrid="true"
     units="px"
     inkscape:pagecheckerboard="true"
     borderlayer="false"
     inkscape:showpageshadow="0"
     inkscape:deskcolor="#d1d1d1"
     inkscape:window-width="2560"
     inkscape:window-height="1494"
     inkscape:window-x="-11"
     inkscape:window-y="-11"
     inkscape:window-maximized="1"><inkscape:grid
       type="xygrid"
       id="grid2405"
       originx="0"
       originy="0"
       spacingy="1"
       spacingx="1"
       units="px"
       visible="true" /></sodipodi:namedview><metadata
     id="metadata5"><rdf:RDF><cc:Work
         rdf:about=""><dc:format>image/svg+xml</dc:format><dc:type
           rdf:resource="http://purl.org/dc/dcmitype/StillImage" /></cc:Work></rdf:RDF></metadata><g
     inkscape:label="Layer 1"
     inkscape:groupmode="layer"
     id="layer1"><path
       style="fill:#000000;stroke-width:1.57478;fill-opacity:0.25"
       d="m 69.750354,86.854978 c -1.72114,-2.712494 -3.04463,-5.023049 -3.28086,-7.85787 -2.55134,-0.566965 -8.35902,-1.99316 -17.312552,-2.126795 C 25.04452,76.510426 20.241342,76.774253 14.498155,76.13445 6.6776063,75.263143 4.4104513,74.80323 3.1724363,73.836931 c -0.836479,-0.652887 -0.877711,-0.89304 -0.515305,-3.001304 0.216663,-1.260388 0.209779,-2.898705 0.331187,-3.640709 0.121856,-0.744775 0.585646,-1.544367 1.035379,-1.785056 1.996287,-1.068375 14.0040547,-2.110027 28.3908177,-2.497186 8.020696,-0.215854 16.66396,-0.456541 22.514819,-0.672446 6.60402,-0.243697 6.68413,-0.39611 10.76371,-1.541942 0.23624,-3.307292 1.169,-5.873992 2.23255,-7.507862 3.24535,-4.985634 7.49515,-8.228469 14.90771,-12.216938 2.8682,-1.543272 8.15605,-2.691043 14.75291,-2.66765 8.298376,0.02947 11.827476,1.199762 19.814796,6.317318 5.60198,3.589263 9.49127,13.647777 9.47696,23.219912 -0.0213,14.328187 -4.07798,18.093021 -11.92953,24.319552 -3.99013,3.16429 -8.15342,4.88785 -16.381266,5.12164 -7.18037,0.20404 -10.6668,-0.23537 -14.50036,-1.28979 -8.42453,-2.31717 -11.87965,-5.299127 -14.31646,-9.139492 z"
       id="path2-9"
       sodipodi:nodetypes="scsssssssscsssssssss" /></g><g
     inkscape:groupmode="layer"
     id="layer2"
     inkscape:label="Layer 2"
     style="display:none"><path
       style="display:inline;fill:#000000"
       d="m 101.41344,128.36151 c -5.70275,-1.06656 -16.855614,-11.20344 -20.362734,-18.69422 -0.62822,-1.3418 -1.88107,-4.04698 -2.7841,-6.01151 -0.90304,-1.96453 -2.49319,-5.17922 -3.533683,-7.14375 C 73.022168,93.28197 72.594033,92.638218 70.0099,90.02973 65.152149,85.126195 59.801329,77.751069 52.6194,77.592703 51.382473,77.572233 49.416283,77.361325 48.250089,77.124009 47.029186,76.875562 39.284918,76.645875 29.993839,76.582549 15.539739,76.484039 13.384345,76.383177 9.3140491,75.614915 5.29692,74.856688 3.135386,74.025089 2.765535,73.095527 c -0.05701,-0.143294 0.006,-1.276699 0.140067,-2.518681 0.134049,-1.24198 0.306804,-2.856963 0.383898,-3.588851 0.07738,-0.734631 0.371893,-1.523339 0.657477,-1.76075 1.281734,-1.065526 8.716215,-2.082198 18.113048,-2.476976 11.496719,-0.482996 17.406814,-0.707081 22.225,-2.202978 2.616661,-0.812392 8.829719,-2.402632 11.747277,-4.154393 5.341252,-3.206996 7.138596,-5.110295 12.385277,-9.48759 7.775558,-6.487132 7.492989,-10.414451 13.405383,-19.738384 4.59581,-7.538345 7.558417,-13.148992 10.825647,-15.597409 5.604508,-4.1999442 10.730331,-6.5455346 16.846761,-7.9400529 3.97194,-0.9055825 7.38498,-0.9784816 10.0505,-0.8602188 1.80034,0.079877 3.27895,0.091977 4.62553,0.6681247 0.83927,0.359087 1.26001,1.4333703 1.22708,2.3779084 -0.0258,0.7397892 -0.76823,2.0957733 -0.62816,3.1119666 0.0302,0.219034 0.36768,1.306273 0.10226,1.743975 -1.0579,1.744578 -4.24839,3.179154 -5.38046,3.740775 -1.05483,0.523307 -3.91881,1.978694 -6.04576,2.825257 -3.74489,1.490538 -4.90508,2.124939 -7.57197,4.140413 -4.22097,3.189958 -7.935213,8.67142 -12.325393,18.401482 -3.862723,8.56105 -3.190539,8.769077 -8.022019,14.07659 -1.0042,1.103138 -1.740723,2.188926 -3.525816,3.961602 5.453125,1.009661 10.879953,1.929133 16.391145,2.370781 1.819013,0.147386 9.711293,0.571596 10.811473,0.600315 7.23352,0.188826 9.70749,0.385289 11.04801,0.46888 2.84191,0.177213 3.79426,0.774447 6.19648,2.622715 0.87971,0.676845 0.22589,1.333875 0.16667,2.282478 -0.0839,1.339332 0.1478,2.979894 0.005,3.64782 -0.6664,3.102832 -5.37617,4.77808 -19.61376,5.267217 -8.402153,1.799381 -17.809835,2.441146 -25.42681,2.520071 3.023336,6.27845 4.607753,4.168037 10.628652,17.92273 3.828765,8.746776 9.282058,15.217736 15.086848,19.875906 4.01089,3.21862 13.78468,3.51296 15.33395,4.47273 1.01524,0.62893 1.96816,1.50306 1.93827,1.72644 -0.03,0.22337 0.0244,1.81955 -0.28056,2.62697 -0.34431,0.91153 -1.49098,3.13394 -1.43116,3.56429 0.0887,0.63832 0.0274,0.76297 -0.7767,1.57843 -0.708,0.71798 -1.06581,0.82077 -1.82834,0.84245 -7.59915,0.21615 -10.24768,-0.23966 -18.83689,-1.84605 z"
       id="path3"
       sodipodi:nodetypes="sssssssssscssssssssssssssssssscssssssscssscsssss" /></g></svg>
